<svg id="Layer_1" data-name="Layer 1" xmlns="http://www.w3.org/2000/svg" xmlns:xlink="http://www.w3.org/1999/xlink" viewBox="0 0 150 150"><defs><linearGradient id="linear-gradient" x1="25.5" y1="25.5" x2="124.5" y2="124.5" gradientUnits="userSpaceOnUse"><stop offset="0" stop-color="#2980c3"/><stop offset="0.7" stop-color="#0d72b9"/><stop offset="1" stop-color="#0a5287"/></linearGradient></defs><title>Artboard 1 copy 7</title><path d="M75,5a70,70,0,1,0,70,70A70,70,0,0,0,75,5ZM37.3,64.41a27.11,27.11,0,0,1,52.32-10c.3.75.57,1.52.8,2.3s.41,1.49.56,2.25a27.12,27.12,0,0,1,.55,5.43V91.52H75.28A12.19,12.19,0,0,1,74.52,90a11.79,11.79,0,0,1-.86-4.41V80.5H80.5V64.41a16.06,16.06,0,0,0-2.19-8.07,16.25,16.25,0,0,0-1.46-2.09,16.07,16.07,0,1,0-22.6,22.6v8.7a31.41,31.41,0,0,0,.28,4.11A27.15,27.15,0,0,1,37.3,64.41Zm48.25,48.25A27.15,27.15,0,0,1,60.34,95.53q-.45-1.13-.8-2.3c-.22-.74-.41-1.49-.56-2.25a27.12,27.12,0,0,1-.55-5.43V58.44H74.68A12.18,12.18,0,0,1,75.45,60a11.79,11.79,0,0,1,.86,4.41v5.05H69.47V85.55a16.06,16.06,0,0,0,2.19,8.07A16.07,16.07,0,1,0,95.71,73.11v-8.7a31.52,31.52,0,0,0-.28-4.11,27.11,27.11,0,0,1-9.88,52.36Z" style="fill:url(#linear-gradient)"/></svg>